<?xml version="1.0" standalone="no"?>
<!DOCTYPE svg PUBLIC "-//W3C//DTD SVG 20010904//EN"
 "http://www.w3.org/TR/2001/REC-SVG-20010904/DTD/svg10.dtd">
<svg version="1.0" xmlns="http://www.w3.org/2000/svg"
 width="512.000000pt" height="512.000000pt" viewBox="0 0 512.000000 512.000000"
 preserveAspectRatio="xMidYMid meet">
<metadata>
Created by potrace 1.14, written by Peter Selinger 2001-2017
</metadata>
<g transform="translate(0.000000,512.000000) scale(0.100000,-0.100000)"
fill="#000000" stroke="none">
<path d="M2452 5055 c-68 -19 11 25 -800 -443 l-702 -405 197 -114 c109 -63
216 -125 238 -137 22 -13 115 -67 207 -120 92 -53 174 -99 182 -102 8 -3 127
60 278 146 145 84 283 164 308 178 25 14 78 45 118 69 41 24 78 43 83 43 7 0
398 -222 577 -329 29 -17 54 -31 56 -31 2 0 34 -18 70 -40 36 -22 70 -40 75
-40 8 0 393 218 571 324 30 18 101 59 157 92 57 32 99 61 95 65 -6 7 -248 148
-347 203 -22 13 -98 57 -170 98 -71 42 -146 85 -165 96 -19 10 -107 61 -195
112 -88 51 -173 101 -190 110 -16 9 -101 58 -187 108 -87 50 -179 98 -205 107
-68 24 -186 28 -251 10z"/>
<path d="M652 4019 c-157 -29 -296 -168 -329 -329 -5 -26 -9 -511 -8 -1150 1
-1096 1 -1105 22 -1162 20 -54 60 -120 99 -164 31 -33 83 -69 193 -132 l103
-59 182 105 c99 58 210 122 244 141 35 20 71 41 80 46 10 6 68 40 130 75 171
98 176 101 185 110 7 6 -173 120 -190 120 -4 0 -14 6 -22 14 -9 7 -47 30 -86
51 -38 21 -78 43 -87 49 -17 10 -18 49 -18 578 0 313 2 568 5 568 2 0 37 -19
77 -43 40 -24 80 -46 88 -50 8 -4 31 -17 50 -28 19 -12 188 -109 375 -217 187
-107 351 -203 365 -213 l25 -17 1 -447 c0 -426 1 -448 19 -461 10 -8 25 -14
32 -14 7 0 13 -4 13 -10 0 -5 4 -10 9 -10 4 0 80 -41 167 -91 87 -50 164 -93
171 -96 7 -3 105 48 217 114 l206 118 0 450 0 450 441 255 c481 278 538 310
544 310 3 0 5 -255 5 -567 l0 -568 -209 -120 c-115 -66 -209 -121 -208 -121 1
-1 148 -86 327 -189 179 -103 362 -209 408 -236 45 -27 89 -49 96 -49 7 0 65
29 127 65 176 101 265 211 286 357 5 29 8 539 7 1133 -1 826 -4 1091 -13 1125
-54 195 -229 324 -425 315 -82 -4 -119 -17 -231 -81 -49 -28 -110 -62 -135
-76 -47 -27 -864 -498 -1035 -598 -260 -151 -398 -230 -401 -230 -2 0 -223
127 -491 282 -268 154 -504 290 -523 301 -19 10 -39 23 -45 27 -5 4 -35 21
-65 38 -30 16 -154 87 -275 158 -121 70 -246 138 -278 151 -63 26 -154 35
-225 22z"/>
<path d="M1673 1326 c-50 -30 -183 -107 -295 -172 -111 -64 -221 -128 -243
-140 -22 -13 -65 -38 -95 -54 -63 -35 -95 -58 -89 -63 6 -6 716 -415 774 -447
28 -15 108 -62 178 -104 71 -42 130 -76 131 -76 2 0 71 -39 152 -87 211 -122
242 -135 346 -139 117 -5 169 12 347 115 79 46 158 91 175 101 359 205 1084
626 1094 635 11 10 4 18 -40 42 -52 29 -307 175 -603 348 -82 48 -159 88 -170
88 -17 2 -267 -138 -669 -375 -55 -32 -105 -58 -112 -58 -6 0 -63 30 -125 67
-63 36 -132 76 -154 88 -22 12 -107 62 -190 110 -82 48 -175 101 -205 118 -30
17 -64 36 -75 44 -11 7 -24 13 -30 13 -5 0 -51 -25 -102 -54z"/>
</g>
</svg>
