<svg id="visual" viewBox="0 0 100 400" width="100" height="400" xmlns="http://www.w3.org/2000/svg" xmlns:xlink="http://www.w3.org/1999/xlink" version="1.1"><path d="M62 0L62.5 3.7C63 7.3 64 14.7 62.3 22C60.7 29.3 56.3 36.7 56.5 44.2C56.7 51.7 61.3 59.3 61.5 66.8C61.7 74.3 57.3 81.7 58 89C58.7 96.3 64.3 103.7 67.5 111C70.7 118.3 71.3 125.7 69.7 133.2C68 140.7 64 148.3 62.8 155.8C61.7 163.3 63.3 170.7 64.8 178C66.3 185.3 67.7 192.7 69.2 200C70.7 207.3 72.3 214.7 69.7 222C67 229.3 60 236.7 57.3 244.2C54.7 251.7 56.3 259.3 59.7 266.8C63 274.3 68 281.7 69.7 289C71.3 296.3 69.7 303.7 67.5 311C65.3 318.3 62.7 325.7 63 333.2C63.3 340.7 66.7 348.3 67.5 355.8C68.3 363.3 66.7 370.7 67.2 378C67.7 385.3 70.3 392.7 71.7 396.3L73 400L0 400L0 396.3C0 392.7 0 385.3 0 378C0 370.7 0 363.3 0 355.8C0 348.3 0 340.7 0 333.2C0 325.7 0 318.3 0 311C0 303.7 0 296.3 0 289C0 281.7 0 274.3 0 266.8C0 259.3 0 251.7 0 244.2C0 236.7 0 229.3 0 222C0 214.7 0 207.3 0 200C0 192.7 0 185.3 0 178C0 170.7 0 163.3 0 155.8C0 148.3 0 140.7 0 133.2C0 125.7 0 118.3 0 111C0 103.7 0 96.3 0 89C0 81.7 0 74.3 0 66.8C0 59.3 0 51.7 0 44.2C0 36.7 0 29.3 0 22C0 14.7 0 7.3 0 3.7L0 0Z" fill="#b0bec5"></path><path d="M51 0L50 3.7C49 7.3 47 14.7 47.5 22C48 29.3 51 36.7 52.5 44.2C54 51.7 54 59.3 55 66.8C56 74.3 58 81.7 58.5 89C59 96.3 58 103.7 57 111C56 118.3 55 125.7 54.5 133.2C54 140.7 54 148.3 54 155.8C54 163.3 54 170.7 55.2 178C56.3 185.3 58.7 192.7 60.5 200C62.3 207.3 63.7 214.7 60.8 222C58 229.3 51 236.7 47.7 244.2C44.3 251.7 44.7 259.3 44.7 266.8C44.7 274.3 44.3 281.7 45.3 289C46.3 296.3 48.7 303.7 50.3 311C52 318.3 53 325.7 52.3 333.2C51.7 340.7 49.3 348.3 48.5 355.8C47.7 363.3 48.3 370.7 48.3 378C48.3 385.3 47.7 392.7 47.3 396.3L47 400L0 400L0 396.3C0 392.7 0 385.3 0 378C0 370.7 0 363.3 0 355.8C0 348.3 0 340.7 0 333.2C0 325.7 0 318.3 0 311C0 303.7 0 296.3 0 289C0 281.7 0 274.3 0 266.8C0 259.3 0 251.7 0 244.2C0 236.7 0 229.3 0 222C0 214.7 0 207.3 0 200C0 192.7 0 185.3 0 178C0 170.7 0 163.3 0 155.8C0 148.3 0 140.7 0 133.2C0 125.7 0 118.3 0 111C0 103.7 0 96.3 0 89C0 81.7 0 74.3 0 66.8C0 59.3 0 51.7 0 44.2C0 36.7 0 29.3 0 22C0 14.7 0 7.3 0 3.7L0 0Z" fill="#bbc7cd"></path><path d="M55 0L52.8 3.7C50.7 7.3 46.3 14.7 45.7 22C45 29.3 48 36.7 47.8 44.2C47.7 51.7 44.3 59.3 45.2 66.8C46 74.3 51 81.7 52.7 89C54.3 96.3 52.7 103.7 52.3 111C52 118.3 53 125.7 54.2 133.2C55.3 140.7 56.7 148.3 54.2 155.8C51.7 163.3 45.3 170.7 43.3 178C41.3 185.3 43.7 192.7 45 200C46.3 207.3 46.7 214.7 46.8 222C47 229.3 47 236.7 46.7 244.2C46.3 251.7 45.7 259.3 45.5 266.8C45.3 274.3 45.7 281.7 47.7 289C49.7 296.3 53.3 303.7 52.2 311C51 318.3 45 325.7 45.3 333.2C45.7 340.7 52.3 348.3 54.7 355.8C57 363.3 55 370.7 52.2 378C49.3 385.3 45.7 392.7 43.8 396.3L42 400L0 400L0 396.3C0 392.7 0 385.3 0 378C0 370.7 0 363.3 0 355.8C0 348.3 0 340.7 0 333.2C0 325.7 0 318.3 0 311C0 303.7 0 296.3 0 289C0 281.7 0 274.3 0 266.8C0 259.3 0 251.7 0 244.2C0 236.7 0 229.3 0 222C0 214.7 0 207.3 0 200C0 192.7 0 185.3 0 178C0 170.7 0 163.3 0 155.8C0 148.3 0 140.7 0 133.2C0 125.7 0 118.3 0 111C0 103.7 0 96.3 0 89C0 81.7 0 74.3 0 66.8C0 59.3 0 51.7 0 44.2C0 36.7 0 29.3 0 22C0 14.7 0 7.3 0 3.7L0 0Z" fill="#c6d0d6"></path><path d="M43 0L41.5 3.7C40 7.3 37 14.7 37.3 22C37.7 29.3 41.3 36.7 41.5 44.2C41.7 51.7 38.3 59.3 39.2 66.8C40 74.3 45 81.7 45.8 89C46.7 96.3 43.3 103.7 42 111C40.7 118.3 41.3 125.7 41.7 133.2C42 140.7 42 148.3 41.7 155.8C41.3 163.3 40.7 170.7 40.7 178C40.7 185.3 41.3 192.7 41.8 200C42.3 207.3 42.7 214.7 42.8 222C43 229.3 43 236.7 43.8 244.2C44.7 251.7 46.3 259.3 45.5 266.8C44.7 274.3 41.3 281.7 40 289C38.7 296.3 39.3 303.7 41 311C42.7 318.3 45.3 325.7 44.2 333.2C43 340.7 38 348.3 37.8 355.8C37.7 363.3 42.3 370.7 44.8 378C47.3 385.3 47.7 392.7 47.8 396.3L48 400L0 400L0 396.3C0 392.7 0 385.3 0 378C0 370.7 0 363.3 0 355.8C0 348.3 0 340.7 0 333.2C0 325.7 0 318.3 0 311C0 303.7 0 296.3 0 289C0 281.7 0 274.3 0 266.8C0 259.3 0 251.7 0 244.2C0 236.7 0 229.3 0 222C0 214.7 0 207.3 0 200C0 192.7 0 185.3 0 178C0 170.7 0 163.3 0 155.8C0 148.3 0 140.7 0 133.2C0 125.7 0 118.3 0 111C0 103.7 0 96.3 0 89C0 81.7 0 74.3 0 66.8C0 59.3 0 51.7 0 44.2C0 36.7 0 29.3 0 22C0 14.7 0 7.3 0 3.7L0 0Z" fill="#d1d9de"></path><path d="M39 0L37.3 3.7C35.7 7.3 32.3 14.7 31 22C29.7 29.3 30.3 36.7 29.7 44.2C29 51.7 27 59.3 28.7 66.8C30.3 74.3 35.7 81.7 38 89C40.3 96.3 39.7 103.7 38 111C36.3 118.3 33.7 125.7 32.2 133.2C30.7 140.7 30.3 148.3 31.3 155.8C32.3 163.3 34.7 170.7 34.5 178C34.3 185.3 31.7 192.7 31.7 200C31.7 207.3 34.3 214.7 35.7 222C37 229.3 37 236.7 35.3 244.2C33.7 251.7 30.3 259.3 29.3 266.8C28.3 274.3 29.7 281.7 29.5 289C29.3 296.3 27.7 303.7 28 311C28.3 318.3 30.7 325.7 33.2 333.2C35.7 340.7 38.3 348.3 39.3 355.8C40.3 363.3 39.7 370.7 38.7 378C37.7 385.3 36.3 392.7 35.7 396.3L35 400L0 400L0 396.3C0 392.7 0 385.3 0 378C0 370.7 0 363.3 0 355.8C0 348.3 0 340.7 0 333.2C0 325.7 0 318.3 0 311C0 303.7 0 296.3 0 289C0 281.7 0 274.3 0 266.8C0 259.3 0 251.7 0 244.2C0 236.7 0 229.3 0 222C0 214.7 0 207.3 0 200C0 192.7 0 185.3 0 178C0 170.7 0 163.3 0 155.8C0 148.3 0 140.7 0 133.2C0 125.7 0 118.3 0 111C0 103.7 0 96.3 0 89C0 81.7 0 74.3 0 66.8C0 59.3 0 51.7 0 44.2C0 36.7 0 29.3 0 22C0 14.7 0 7.3 0 3.7L0 0Z" fill="#dde3e6"></path><path d="M29 0L28.3 3.7C27.7 7.3 26.3 14.7 26.2 22C26 29.3 27 36.7 28.2 44.2C29.3 51.7 30.7 59.3 29.2 66.8C27.7 74.3 23.3 81.7 21.2 89C19 96.3 19 103.7 21.3 111C23.7 118.3 28.3 125.7 29.2 133.2C30 140.7 27 148.3 25.5 155.8C24 163.3 24 170.7 25.5 178C27 185.3 30 192.7 31.2 200C32.3 207.3 31.7 214.7 29.8 222C28 229.3 25 236.7 23.5 244.2C22 251.7 22 259.3 22.7 266.8C23.3 274.3 24.7 281.7 25.8 289C27 296.3 28 303.7 27.7 311C27.3 318.3 25.7 325.7 25.5 333.2C25.3 340.7 26.7 348.3 26.7 355.8C26.7 363.3 25.3 370.7 26.2 378C27 385.3 30 392.7 31.5 396.3L33 400L0 400L0 396.3C0 392.7 0 385.3 0 378C0 370.7 0 363.3 0 355.8C0 348.3 0 340.7 0 333.2C0 325.7 0 318.3 0 311C0 303.7 0 296.3 0 289C0 281.7 0 274.3 0 266.8C0 259.3 0 251.7 0 244.2C0 236.7 0 229.3 0 222C0 214.7 0 207.3 0 200C0 192.7 0 185.3 0 178C0 170.7 0 163.3 0 155.8C0 148.3 0 140.7 0 133.2C0 125.7 0 118.3 0 111C0 103.7 0 96.3 0 89C0 81.7 0 74.3 0 66.8C0 59.3 0 51.7 0 44.2C0 36.7 0 29.3 0 22C0 14.7 0 7.3 0 3.7L0 0Z" fill="#e8ecee"></path><path d="M25 0L24.2 3.7C23.3 7.3 21.7 14.7 20.3 22C19 29.3 18 36.7 17.7 44.2C17.3 51.7 17.7 59.3 18.8 66.8C20 74.3 22 81.7 21.7 89C21.3 96.3 18.7 103.7 17.7 111C16.7 118.3 17.3 125.7 18.5 133.2C19.7 140.7 21.3 148.3 21.8 155.8C22.3 163.3 21.7 170.7 21 178C20.3 185.3 19.7 192.7 18.5 200C17.3 207.3 15.7 214.7 16 222C16.3 229.3 18.7 236.7 18.5 244.2C18.3 251.7 15.7 259.3 14.5 266.8C13.3 274.3 13.7 281.7 15.3 289C17 296.3 20 303.7 20.8 311C21.7 318.3 20.3 325.7 20.7 333.2C21 340.7 23 348.3 22.5 355.8C22 363.3 19 370.7 17.7 378C16.3 385.3 16.7 392.7 16.8 396.3L17 400L0 400L0 396.3C0 392.7 0 385.3 0 378C0 370.7 0 363.3 0 355.8C0 348.3 0 340.7 0 333.2C0 325.7 0 318.3 0 311C0 303.7 0 296.3 0 289C0 281.7 0 274.3 0 266.8C0 259.3 0 251.7 0 244.2C0 236.7 0 229.3 0 222C0 214.7 0 207.3 0 200C0 192.7 0 185.3 0 178C0 170.7 0 163.3 0 155.8C0 148.3 0 140.7 0 133.2C0 125.7 0 118.3 0 111C0 103.7 0 96.3 0 89C0 81.7 0 74.3 0 66.8C0 59.3 0 51.7 0 44.2C0 36.7 0 29.3 0 22C0 14.7 0 7.3 0 3.7L0 0Z" fill="#f3f5f7"></path><path d="M11 0L10.3 3.7C9.7 7.3 8.3 14.7 7.8 22C7.3 29.3 7.7 36.7 7.8 44.2C8 51.7 8 59.3 8.2 66.8C8.3 74.3 8.7 81.7 9.2 89C9.7 96.3 10.3 103.7 10.2 111C10 118.3 9 125.7 8.3 133.2C7.7 140.7 7.3 148.3 7 155.8C6.7 163.3 6.3 170.7 6.5 178C6.7 185.3 7.3 192.7 8 200C8.7 207.3 9.3 214.7 9.8 222C10.3 229.3 10.7 236.7 11.3 244.2C12 251.7 13 259.3 13 266.8C13 274.3 12 281.7 11 289C10 296.3 9 303.7 9.2 311C9.3 318.3 10.7 325.7 11.7 333.2C12.7 340.7 13.3 348.3 12.5 355.8C11.7 363.3 9.3 370.7 8.3 378C7.3 385.3 7.7 392.7 7.8 396.3L8 400L0 400L0 396.3C0 392.7 0 385.3 0 378C0 370.7 0 363.3 0 355.8C0 348.3 0 340.7 0 333.2C0 325.7 0 318.3 0 311C0 303.7 0 296.3 0 289C0 281.7 0 274.3 0 266.8C0 259.3 0 251.7 0 244.2C0 236.7 0 229.3 0 222C0 214.7 0 207.3 0 200C0 192.7 0 185.3 0 178C0 170.7 0 163.3 0 155.8C0 148.3 0 140.7 0 133.2C0 125.7 0 118.3 0 111C0 103.7 0 96.3 0 89C0 81.7 0 74.3 0 66.8C0 59.3 0 51.7 0 44.2C0 36.7 0 29.3 0 22C0 14.7 0 7.3 0 3.7L0 0Z" fill="#ffffff"></path></svg>