<svg id="visual" viewBox="0 0 100 400" width="100" height="400" xmlns="http://www.w3.org/2000/svg" xmlns:xlink="http://www.w3.org/1999/xlink" version="1.1"><path d="M40 400L39.5 396.3C39 392.7 38 385.3 39.7 378C41.3 370.7 45.7 363.3 45.5 355.8C45.3 348.3 40.7 340.7 40.5 333.2C40.3 325.7 44.7 318.3 44 311C43.3 303.7 37.7 296.3 34.5 289C31.3 281.7 30.7 274.3 32.3 266.8C34 259.3 38 251.7 39.2 244.2C40.3 236.7 38.7 229.3 37.2 222C35.7 214.7 34.3 207.3 32.8 200C31.3 192.7 29.7 185.3 32.3 178C35 170.7 42 163.3 44.7 155.8C47.3 148.3 45.7 140.7 42.3 133.2C39 125.7 34 118.3 32.3 111C30.7 103.7 32.3 96.3 34.5 89C36.7 81.7 39.3 74.3 39 66.8C38.7 59.3 35.3 51.7 34.5 44.2C33.7 36.7 35.3 29.3 34.8 22C34.3 14.7 31.7 7.3 30.3 3.7L29 0L100 0L100 3.7C100 7.3 100 14.7 100 22C100 29.3 100 36.7 100 44.2C100 51.7 100 59.3 100 66.8C100 74.3 100 81.7 100 89C100 96.3 100 103.7 100 111C100 118.3 100 125.7 100 133.2C100 140.7 100 148.3 100 155.8C100 163.3 100 170.7 100 178C100 185.3 100 192.7 100 200C100 207.3 100 214.7 100 222C100 229.3 100 236.7 100 244.2C100 251.7 100 259.3 100 266.8C100 274.3 100 281.7 100 289C100 296.3 100 303.7 100 311C100 318.3 100 325.7 100 333.2C100 340.7 100 348.3 100 355.8C100 363.3 100 370.7 100 378C100 385.3 100 392.7 100 396.3L100 400Z" fill="#b0bec5"></path><path d="M51 400L52 396.3C53 392.7 55 385.3 54.5 378C54 370.7 51 363.3 49.5 355.8C48 348.3 48 340.7 47 333.2C46 325.7 44 318.3 43.5 311C43 303.7 44 296.3 45 289C46 281.7 47 274.3 47.5 266.8C48 259.3 48 251.7 48 244.2C48 236.7 48 229.3 46.8 222C45.7 214.7 43.3 207.3 41.5 200C39.7 192.7 38.3 185.3 41.2 178C44 170.7 51 163.3 54.3 155.8C57.7 148.3 57.3 140.7 57.3 133.2C57.3 125.7 57.7 118.3 56.7 111C55.7 103.7 53.3 96.3 51.7 89C50 81.7 49 74.3 49.7 66.8C50.3 59.3 52.7 51.7 53.5 44.2C54.3 36.7 53.7 29.3 53.7 22C53.7 14.7 54.3 7.3 54.7 3.7L55 0L100 0L100 3.7C100 7.3 100 14.7 100 22C100 29.3 100 36.7 100 44.2C100 51.7 100 59.3 100 66.8C100 74.3 100 81.7 100 89C100 96.3 100 103.7 100 111C100 118.3 100 125.7 100 133.2C100 140.7 100 148.3 100 155.8C100 163.3 100 170.7 100 178C100 185.3 100 192.7 100 200C100 207.3 100 214.7 100 222C100 229.3 100 236.7 100 244.2C100 251.7 100 259.3 100 266.8C100 274.3 100 281.7 100 289C100 296.3 100 303.7 100 311C100 318.3 100 325.7 100 333.2C100 340.7 100 348.3 100 355.8C100 363.3 100 370.7 100 378C100 385.3 100 392.7 100 396.3L100 400Z" fill="#bbc7cd"></path><path d="M47 400L49.2 396.3C51.3 392.7 55.7 385.3 56.3 378C57 370.7 54 363.3 54.2 355.8C54.3 348.3 57.7 340.7 56.8 333.2C56 325.7 51 318.3 49.3 311C47.7 303.7 49.3 296.3 49.7 289C50 281.7 49 274.3 47.8 266.8C46.7 259.3 45.3 251.7 47.8 244.2C50.3 236.7 56.7 229.3 58.7 222C60.7 214.7 58.3 207.3 57 200C55.7 192.7 55.3 185.3 55.2 178C55 170.7 55 163.3 55.3 155.8C55.7 148.3 56.3 140.7 56.5 133.2C56.7 125.7 56.3 118.3 54.3 111C52.3 103.7 48.7 96.3 49.8 89C51 81.7 57 74.3 56.7 66.8C56.3 59.3 49.7 51.7 47.3 44.2C45 36.7 47 29.3 49.8 22C52.7 14.7 56.3 7.3 58.2 3.7L60 0L100 0L100 3.7C100 7.3 100 14.7 100 22C100 29.3 100 36.7 100 44.2C100 51.7 100 59.3 100 66.8C100 74.3 100 81.7 100 89C100 96.3 100 103.7 100 111C100 118.3 100 125.7 100 133.2C100 140.7 100 148.3 100 155.8C100 163.3 100 170.7 100 178C100 185.3 100 192.7 100 200C100 207.3 100 214.7 100 222C100 229.3 100 236.7 100 244.2C100 251.7 100 259.3 100 266.8C100 274.3 100 281.7 100 289C100 296.3 100 303.7 100 311C100 318.3 100 325.7 100 333.2C100 340.7 100 348.3 100 355.8C100 363.3 100 370.7 100 378C100 385.3 100 392.7 100 396.3L100 400Z" fill="#c6d0d6"></path><path d="M59 400L60.5 396.3C62 392.7 65 385.3 64.7 378C64.3 370.7 60.7 363.3 60.5 355.8C60.3 348.3 63.7 340.7 62.8 333.2C62 325.7 57 318.3 56.2 311C55.3 303.7 58.7 296.3 60 289C61.3 281.7 60.7 274.3 60.3 266.8C60 259.3 60 251.7 60.3 244.2C60.7 236.7 61.3 229.3 61.3 222C61.3 214.7 60.7 207.3 60.2 200C59.7 192.7 59.3 185.3 59.2 178C59 170.7 59 163.3 58.2 155.8C57.3 148.3 55.7 140.7 56.5 133.2C57.3 125.7 60.7 118.3 62 111C63.3 103.7 62.7 96.3 61 89C59.3 81.7 56.7 74.3 57.8 66.8C59 59.3 64 51.7 64.2 44.2C64.3 36.7 59.7 29.3 57.2 22C54.7 14.7 54.3 7.3 54.2 3.7L54 0L100 0L100 3.7C100 7.3 100 14.7 100 22C100 29.3 100 36.7 100 44.2C100 51.7 100 59.3 100 66.8C100 74.3 100 81.7 100 89C100 96.3 100 103.7 100 111C100 118.3 100 125.7 100 133.2C100 140.7 100 148.3 100 155.8C100 163.3 100 170.7 100 178C100 185.3 100 192.7 100 200C100 207.3 100 214.7 100 222C100 229.3 100 236.7 100 244.2C100 251.7 100 259.3 100 266.8C100 274.3 100 281.7 100 289C100 296.3 100 303.7 100 311C100 318.3 100 325.7 100 333.2C100 340.7 100 348.3 100 355.8C100 363.3 100 370.7 100 378C100 385.3 100 392.7 100 396.3L100 400Z" fill="#d1d9de"></path><path d="M63 400L64.7 396.3C66.3 392.7 69.7 385.3 71 378C72.3 370.7 71.7 363.3 72.3 355.8C73 348.3 75 340.7 73.3 333.2C71.7 325.7 66.3 318.3 64 311C61.7 303.7 62.3 296.3 64 289C65.7 281.7 68.3 274.3 69.8 266.8C71.3 259.3 71.7 251.7 70.7 244.2C69.7 236.7 67.3 229.3 67.5 222C67.7 214.7 70.3 207.3 70.3 200C70.3 192.7 67.7 185.3 66.3 178C65 170.7 65 163.3 66.7 155.8C68.3 148.3 71.7 140.7 72.7 133.2C73.7 125.7 72.3 118.3 72.5 111C72.7 103.7 74.3 96.3 74 89C73.7 81.7 71.3 74.3 68.8 66.8C66.3 59.3 63.7 51.7 62.7 44.2C61.7 36.7 62.3 29.3 63.3 22C64.3 14.7 65.7 7.3 66.3 3.7L67 0L100 0L100 3.7C100 7.3 100 14.7 100 22C100 29.3 100 36.7 100 44.2C100 51.7 100 59.3 100 66.8C100 74.3 100 81.7 100 89C100 96.3 100 103.7 100 111C100 118.3 100 125.7 100 133.2C100 140.7 100 148.3 100 155.8C100 163.3 100 170.7 100 178C100 185.3 100 192.7 100 200C100 207.3 100 214.7 100 222C100 229.3 100 236.7 100 244.2C100 251.7 100 259.3 100 266.8C100 274.3 100 281.7 100 289C100 296.3 100 303.7 100 311C100 318.3 100 325.7 100 333.2C100 340.7 100 348.3 100 355.8C100 363.3 100 370.7 100 378C100 385.3 100 392.7 100 396.3L100 400Z" fill="#dde3e6"></path><path d="M73 400L73.7 396.3C74.3 392.7 75.7 385.3 75.8 378C76 370.7 75 363.3 73.8 355.8C72.7 348.3 71.3 340.7 72.8 333.2C74.3 325.7 78.7 318.3 80.8 311C83 303.7 83 296.3 80.7 289C78.3 281.7 73.7 274.3 72.8 266.8C72 259.3 75 251.7 76.5 244.2C78 236.7 78 229.3 76.5 222C75 214.7 72 207.3 70.8 200C69.7 192.7 70.3 185.3 72.2 178C74 170.7 77 163.3 78.5 155.8C80 148.3 80 140.7 79.3 133.2C78.7 125.7 77.3 118.3 76.2 111C75 103.7 74 96.3 74.3 89C74.7 81.7 76.3 74.3 76.5 66.8C76.7 59.3 75.3 51.7 75.3 44.2C75.3 36.7 76.7 29.3 75.8 22C75 14.7 72 7.3 70.5 3.7L69 0L100 0L100 3.7C100 7.3 100 14.7 100 22C100 29.3 100 36.7 100 44.2C100 51.7 100 59.3 100 66.8C100 74.3 100 81.7 100 89C100 96.3 100 103.7 100 111C100 118.3 100 125.7 100 133.2C100 140.7 100 148.3 100 155.8C100 163.3 100 170.7 100 178C100 185.3 100 192.7 100 200C100 207.3 100 214.7 100 222C100 229.3 100 236.7 100 244.2C100 251.7 100 259.3 100 266.8C100 274.3 100 281.7 100 289C100 296.3 100 303.7 100 311C100 318.3 100 325.7 100 333.2C100 340.7 100 348.3 100 355.8C100 363.3 100 370.7 100 378C100 385.3 100 392.7 100 396.3L100 400Z" fill="#e8ecee"></path><path d="M77 400L77.8 396.3C78.7 392.7 80.3 385.3 81.7 378C83 370.7 84 363.3 84.3 355.8C84.7 348.3 84.3 340.7 83.2 333.2C82 325.7 80 318.3 80.3 311C80.7 303.7 83.3 296.3 84.3 289C85.3 281.7 84.7 274.3 83.5 266.8C82.3 259.3 80.7 251.7 80.2 244.2C79.7 236.7 80.3 229.3 81 222C81.7 214.7 82.3 207.3 83.5 200C84.7 192.7 86.3 185.3 86 178C85.7 170.7 83.3 163.3 83.5 155.8C83.7 148.3 86.3 140.7 87.5 133.2C88.7 125.7 88.3 118.3 86.7 111C85 103.7 82 96.3 81.2 89C80.3 81.7 81.7 74.3 81.3 66.8C81 59.3 79 51.7 79.5 44.2C80 36.7 83 29.3 84.3 22C85.7 14.7 85.3 7.3 85.2 3.7L85 0L100 0L100 3.7C100 7.3 100 14.7 100 22C100 29.3 100 36.7 100 44.2C100 51.7 100 59.3 100 66.8C100 74.3 100 81.7 100 89C100 96.3 100 103.7 100 111C100 118.3 100 125.7 100 133.2C100 140.7 100 148.3 100 155.8C100 163.3 100 170.7 100 178C100 185.3 100 192.7 100 200C100 207.3 100 214.7 100 222C100 229.3 100 236.7 100 244.2C100 251.7 100 259.3 100 266.8C100 274.3 100 281.7 100 289C100 296.3 100 303.7 100 311C100 318.3 100 325.7 100 333.2C100 340.7 100 348.3 100 355.8C100 363.3 100 370.7 100 378C100 385.3 100 392.7 100 396.3L100 400Z" fill="#f3f5f7"></path><path d="M91 400L91.7 396.3C92.3 392.7 93.7 385.3 94.2 378C94.7 370.7 94.3 363.3 94.2 355.8C94 348.3 94 340.7 93.8 333.2C93.7 325.7 93.3 318.3 92.8 311C92.3 303.7 91.7 296.3 91.8 289C92 281.7 93 274.3 93.7 266.8C94.3 259.3 94.7 251.7 95 244.2C95.3 236.7 95.7 229.3 95.5 222C95.3 214.7 94.7 207.3 94 200C93.3 192.7 92.7 185.3 92.2 178C91.7 170.7 91.3 163.3 90.7 155.8C90 148.3 89 140.7 89 133.2C89 125.7 90 118.3 91 111C92 103.7 93 96.3 92.8 89C92.7 81.7 91.3 74.3 90.3 66.8C89.3 59.3 88.7 51.7 89.5 44.2C90.3 36.7 92.7 29.3 93.7 22C94.7 14.7 94.3 7.3 94.2 3.7L94 0L100 0L100 3.7C100 7.3 100 14.7 100 22C100 29.3 100 36.7 100 44.2C100 51.7 100 59.3 100 66.8C100 74.3 100 81.7 100 89C100 96.3 100 103.7 100 111C100 118.3 100 125.7 100 133.2C100 140.7 100 148.3 100 155.8C100 163.3 100 170.7 100 178C100 185.3 100 192.7 100 200C100 207.3 100 214.7 100 222C100 229.3 100 236.7 100 244.2C100 251.7 100 259.3 100 266.8C100 274.3 100 281.7 100 289C100 296.3 100 303.7 100 311C100 318.3 100 325.7 100 333.2C100 340.7 100 348.3 100 355.8C100 363.3 100 370.7 100 378C100 385.3 100 392.7 100 396.3L100 400Z" fill="#ffffff"></path></svg>